<svg width="116" height="114" viewBox="0 0 116 114" fill="none" xmlns="http://www.w3.org/2000/svg">
<ellipse cx="58" cy="4.36689" rx="3.625" ry="3.46026" fill="#F2B440" fill-opacity="0.4"/>
<ellipse cx="3.625" cy="4.36689" rx="3.625" ry="3.46026" fill="#F2B440" fill-opacity="0.4"/>
<ellipse cx="68.875" cy="4.36689" rx="3.625" ry="3.46026" fill="#F2B440" fill-opacity="0.4"/>
<ellipse cx="14.5" cy="4.36689" rx="3.625" ry="3.46026" fill="#F2B440" fill-opacity="0.4"/>
<ellipse cx="79.75" cy="4.36689" rx="3.625" ry="3.46026" fill="#F2B440" fill-opacity="0.4"/>
<ellipse cx="25.375" cy="4.36689" rx="3.625" ry="3.46026" fill="#F2B440" fill-opacity="0.4"/>
<ellipse cx="90.6251" cy="4.36689" rx="3.625" ry="3.46026" fill="#F2B440" fill-opacity="0.4"/>
<ellipse cx="36.25" cy="4.36689" rx="3.625" ry="3.46026" fill="#F2B440" fill-opacity="0.4"/>
<ellipse cx="101.5" cy="4.36689" rx="3.625" ry="3.46026" fill="#F2B440" fill-opacity="0.4"/>
<ellipse cx="47.125" cy="4.36689" rx="3.625" ry="3.46026" fill="#F2B440" fill-opacity="0.4"/>
<ellipse cx="112.375" cy="4.36689" rx="3.625" ry="3.46026" fill="#F2B440" fill-opacity="0.4"/>
<ellipse cx="58" cy="46.5516" rx="3.625" ry="3.46026" fill="#F2B440" fill-opacity="0.4"/>
<ellipse cx="3.625" cy="46.5516" rx="3.625" ry="3.46026" fill="#F2B440" fill-opacity="0.4"/>
<ellipse cx="68.875" cy="46.5516" rx="3.625" ry="3.46026" fill="#F2B440" fill-opacity="0.4"/>
<ellipse cx="14.5" cy="46.5516" rx="3.625" ry="3.46026" fill="#F2B440" fill-opacity="0.4"/>
<ellipse cx="79.75" cy="46.5516" rx="3.625" ry="3.46026" fill="#F2B440" fill-opacity="0.4"/>
<ellipse cx="25.375" cy="46.5516" rx="3.625" ry="3.46026" fill="#F2B440" fill-opacity="0.4"/>
<ellipse cx="90.6251" cy="46.5516" rx="3.625" ry="3.46026" fill="#F2B440" fill-opacity="0.4"/>
<ellipse cx="36.25" cy="46.5516" rx="3.625" ry="3.46026" fill="#F2B440" fill-opacity="0.4"/>
<ellipse cx="101.5" cy="46.5516" rx="3.625" ry="3.46026" fill="#F2B440" fill-opacity="0.4"/>
<ellipse cx="47.125" cy="46.5516" rx="3.625" ry="3.46026" fill="#F2B440" fill-opacity="0.4"/>
<ellipse cx="112.375" cy="46.5516" rx="3.625" ry="3.46026" fill="#F2B440" fill-opacity="0.4"/>
<ellipse cx="58" cy="25.4593" rx="3.625" ry="3.46026" fill="#F2B440" fill-opacity="0.4"/>
<ellipse cx="3.625" cy="25.4593" rx="3.625" ry="3.46026" fill="#F2B440" fill-opacity="0.4"/>
<ellipse cx="68.875" cy="25.4593" rx="3.625" ry="3.46026" fill="#F2B440" fill-opacity="0.4"/>
<ellipse cx="14.5" cy="25.4593" rx="3.625" ry="3.46026" fill="#F2B440" fill-opacity="0.4"/>
<ellipse cx="79.75" cy="25.4593" rx="3.625" ry="3.46026" fill="#F2B440" fill-opacity="0.4"/>
<ellipse cx="25.375" cy="25.4593" rx="3.625" ry="3.46026" fill="#F2B440" fill-opacity="0.4"/>
<ellipse cx="90.6251" cy="25.4593" rx="3.625" ry="3.46026" fill="#F2B440" fill-opacity="0.4"/>
<ellipse cx="36.25" cy="25.4593" rx="3.625" ry="3.46026" fill="#F2B440" fill-opacity="0.4"/>
<ellipse cx="101.5" cy="25.4593" rx="3.625" ry="3.46026" fill="#F2B440" fill-opacity="0.4"/>
<ellipse cx="47.125" cy="25.4593" rx="3.625" ry="3.46026" fill="#F2B440" fill-opacity="0.4"/>
<ellipse cx="112.375" cy="25.4593" rx="3.625" ry="3.46026" fill="#F2B440" fill-opacity="0.4"/>
<ellipse cx="58" cy="67.6439" rx="3.625" ry="3.46026" fill="#F2B440" fill-opacity="0.4"/>
<ellipse cx="3.625" cy="67.6439" rx="3.625" ry="3.46026" fill="#F2B440" fill-opacity="0.4"/>
<ellipse cx="68.875" cy="67.6439" rx="3.625" ry="3.46026" fill="#F2B440" fill-opacity="0.4"/>
<ellipse cx="14.5" cy="67.6439" rx="3.625" ry="3.46026" fill="#F2B440" fill-opacity="0.4"/>
<ellipse cx="79.75" cy="67.6439" rx="3.625" ry="3.46026" fill="#F2B440" fill-opacity="0.4"/>
<ellipse cx="25.375" cy="67.6439" rx="3.625" ry="3.46026" fill="#F2B440" fill-opacity="0.4"/>
<ellipse cx="90.6251" cy="67.6439" rx="3.625" ry="3.46026" fill="#F2B440" fill-opacity="0.4"/>
<ellipse cx="36.25" cy="67.6439" rx="3.625" ry="3.46026" fill="#F2B440" fill-opacity="0.4"/>
<ellipse cx="101.5" cy="67.6439" rx="3.625" ry="3.46026" fill="#F2B440" fill-opacity="0.4"/>
<ellipse cx="47.125" cy="67.6439" rx="3.625" ry="3.46026" fill="#F2B440" fill-opacity="0.4"/>
<ellipse cx="112.375" cy="67.6439" rx="3.625" ry="3.46026" fill="#F2B440" fill-opacity="0.4"/>
<ellipse cx="58" cy="99.2825" rx="3.625" ry="3.46026" fill="#F2B440" fill-opacity="0.4"/>
<ellipse cx="3.625" cy="99.2825" rx="3.625" ry="3.46026" fill="#F2B440" fill-opacity="0.4"/>
<ellipse cx="68.875" cy="99.2825" rx="3.625" ry="3.46026" fill="#F2B440" fill-opacity="0.4"/>
<ellipse cx="14.5" cy="99.2825" rx="3.625" ry="3.46026" fill="#F2B440" fill-opacity="0.4"/>
<ellipse cx="79.75" cy="99.2825" rx="3.625" ry="3.46026" fill="#F2B440" fill-opacity="0.4"/>
<ellipse cx="25.375" cy="99.2825" rx="3.625" ry="3.46026" fill="#F2B440" fill-opacity="0.4"/>
<ellipse cx="90.6251" cy="99.2825" rx="3.625" ry="3.46026" fill="#F2B440" fill-opacity="0.4"/>
<ellipse cx="36.25" cy="99.2825" rx="3.625" ry="3.46026" fill="#F2B440" fill-opacity="0.4"/>
<ellipse cx="101.5" cy="99.2825" rx="3.625" ry="3.46026" fill="#F2B440" fill-opacity="0.4"/>
<ellipse cx="47.125" cy="99.2825" rx="3.625" ry="3.46026" fill="#F2B440" fill-opacity="0.4"/>
<ellipse cx="112.375" cy="99.2825" rx="3.625" ry="3.46026" fill="#F2B440" fill-opacity="0.4"/>
<ellipse cx="58" cy="14.9131" rx="3.625" ry="3.46026" fill="#F2B440" fill-opacity="0.4"/>
<ellipse cx="3.625" cy="14.9131" rx="3.625" ry="3.46026" fill="#F2B440" fill-opacity="0.4"/>
<ellipse cx="68.875" cy="14.9131" rx="3.625" ry="3.46026" fill="#F2B440" fill-opacity="0.4"/>
<ellipse cx="14.5" cy="14.9131" rx="3.625" ry="3.46026" fill="#F2B440" fill-opacity="0.4"/>
<ellipse cx="79.75" cy="14.9131" rx="3.625" ry="3.46026" fill="#F2B440" fill-opacity="0.4"/>
<ellipse cx="25.375" cy="14.9131" rx="3.625" ry="3.46026" fill="#F2B440" fill-opacity="0.4"/>
<ellipse cx="90.6251" cy="14.9131" rx="3.625" ry="3.46026" fill="#F2B440" fill-opacity="0.4"/>
<ellipse cx="36.25" cy="14.9131" rx="3.625" ry="3.46026" fill="#F2B440" fill-opacity="0.4"/>
<ellipse cx="101.5" cy="14.9131" rx="3.625" ry="3.46026" fill="#F2B440" fill-opacity="0.4"/>
<ellipse cx="47.125" cy="14.9131" rx="3.625" ry="3.46026" fill="#F2B440" fill-opacity="0.4"/>
<ellipse cx="112.375" cy="14.9131" rx="3.625" ry="3.46026" fill="#F2B440" fill-opacity="0.4"/>
<ellipse cx="58" cy="57.0978" rx="3.625" ry="3.46026" fill="#F2B440" fill-opacity="0.4"/>
<ellipse cx="3.625" cy="57.0978" rx="3.625" ry="3.46026" fill="#F2B440" fill-opacity="0.4"/>
<ellipse cx="68.875" cy="57.0978" rx="3.625" ry="3.46026" fill="#F2B440" fill-opacity="0.4"/>
<ellipse cx="14.5" cy="57.0978" rx="3.625" ry="3.46026" fill="#F2B440" fill-opacity="0.4"/>
<ellipse cx="79.75" cy="57.0978" rx="3.625" ry="3.46026" fill="#F2B440" fill-opacity="0.4"/>
<ellipse cx="25.375" cy="57.0978" rx="3.625" ry="3.46026" fill="#F2B440" fill-opacity="0.4"/>
<ellipse cx="90.6251" cy="57.0978" rx="3.625" ry="3.46026" fill="#F2B440" fill-opacity="0.4"/>
<ellipse cx="36.25" cy="57.0978" rx="3.625" ry="3.46026" fill="#F2B440" fill-opacity="0.4"/>
<ellipse cx="101.5" cy="57.0978" rx="3.625" ry="3.46026" fill="#F2B440" fill-opacity="0.4"/>
<ellipse cx="47.125" cy="57.0978" rx="3.625" ry="3.46026" fill="#F2B440" fill-opacity="0.4"/>
<ellipse cx="112.375" cy="57.0978" rx="3.625" ry="3.46026" fill="#F2B440" fill-opacity="0.4"/>
<ellipse cx="58" cy="88.7363" rx="3.625" ry="3.46026" fill="#F2B440" fill-opacity="0.4"/>
<ellipse cx="3.625" cy="88.7363" rx="3.625" ry="3.46026" fill="#F2B440" fill-opacity="0.4"/>
<ellipse cx="68.875" cy="88.7363" rx="3.625" ry="3.46026" fill="#F2B440" fill-opacity="0.4"/>
<ellipse cx="14.5" cy="88.7363" rx="3.625" ry="3.46026" fill="#F2B440" fill-opacity="0.4"/>
<ellipse cx="79.75" cy="88.7363" rx="3.625" ry="3.46026" fill="#F2B440" fill-opacity="0.4"/>
<ellipse cx="25.375" cy="88.7363" rx="3.625" ry="3.46026" fill="#F2B440" fill-opacity="0.4"/>
<ellipse cx="90.6251" cy="88.7363" rx="3.625" ry="3.46026" fill="#F2B440" fill-opacity="0.4"/>
<ellipse cx="36.25" cy="88.7363" rx="3.625" ry="3.46026" fill="#F2B440" fill-opacity="0.4"/>
<ellipse cx="101.5" cy="88.7363" rx="3.625" ry="3.46026" fill="#F2B440" fill-opacity="0.4"/>
<ellipse cx="47.125" cy="88.7363" rx="3.625" ry="3.46026" fill="#F2B440" fill-opacity="0.4"/>
<ellipse cx="112.375" cy="88.7363" rx="3.625" ry="3.46026" fill="#F2B440" fill-opacity="0.4"/>
<ellipse cx="58" cy="36.0054" rx="3.625" ry="3.46026" fill="#F2B440" fill-opacity="0.4"/>
<ellipse cx="3.625" cy="36.0054" rx="3.625" ry="3.46026" fill="#F2B440" fill-opacity="0.4"/>
<ellipse cx="68.875" cy="36.0054" rx="3.625" ry="3.46026" fill="#F2B440" fill-opacity="0.4"/>
<ellipse cx="14.5" cy="36.0054" rx="3.625" ry="3.46026" fill="#F2B440" fill-opacity="0.4"/>
<ellipse cx="79.75" cy="36.0054" rx="3.625" ry="3.46026" fill="#F2B440" fill-opacity="0.4"/>
<ellipse cx="25.375" cy="36.0054" rx="3.625" ry="3.46026" fill="#F2B440" fill-opacity="0.4"/>
<ellipse cx="90.6251" cy="36.0054" rx="3.625" ry="3.46026" fill="#F2B440" fill-opacity="0.4"/>
<ellipse cx="36.25" cy="36.0054" rx="3.625" ry="3.46026" fill="#F2B440" fill-opacity="0.4"/>
<ellipse cx="101.5" cy="36.0054" rx="3.625" ry="3.46026" fill="#F2B440" fill-opacity="0.4"/>
<ellipse cx="47.125" cy="36.0054" rx="3.625" ry="3.46026" fill="#F2B440" fill-opacity="0.4"/>
<ellipse cx="112.375" cy="36.0054" rx="3.625" ry="3.46026" fill="#F2B440" fill-opacity="0.4"/>
<ellipse cx="58" cy="78.1901" rx="3.625" ry="3.46026" fill="#F2B440" fill-opacity="0.4"/>
<ellipse cx="3.625" cy="78.1901" rx="3.625" ry="3.46026" fill="#F2B440" fill-opacity="0.4"/>
<ellipse cx="68.875" cy="78.1901" rx="3.625" ry="3.46026" fill="#F2B440" fill-opacity="0.4"/>
<ellipse cx="14.5" cy="78.1901" rx="3.625" ry="3.46026" fill="#F2B440" fill-opacity="0.4"/>
<ellipse cx="79.75" cy="78.1901" rx="3.625" ry="3.46026" fill="#F2B440" fill-opacity="0.4"/>
<ellipse cx="25.375" cy="78.1901" rx="3.625" ry="3.46026" fill="#F2B440" fill-opacity="0.4"/>
<ellipse cx="90.6251" cy="78.1901" rx="3.625" ry="3.46026" fill="#F2B440" fill-opacity="0.4"/>
<ellipse cx="36.25" cy="78.1901" rx="3.625" ry="3.46026" fill="#F2B440" fill-opacity="0.4"/>
<ellipse cx="101.5" cy="78.1901" rx="3.625" ry="3.46026" fill="#F2B440" fill-opacity="0.4"/>
<ellipse cx="47.125" cy="78.1901" rx="3.625" ry="3.46026" fill="#F2B440" fill-opacity="0.4"/>
<ellipse cx="112.375" cy="78.1901" rx="3.625" ry="3.46026" fill="#F2B440" fill-opacity="0.4"/>
<ellipse cx="58" cy="109.829" rx="3.625" ry="3.46026" fill="#F2B440" fill-opacity="0.4"/>
<ellipse cx="3.625" cy="109.829" rx="3.625" ry="3.46026" fill="#F2B440" fill-opacity="0.4"/>
<ellipse cx="68.875" cy="109.829" rx="3.625" ry="3.46026" fill="#F2B440" fill-opacity="0.4"/>
<ellipse cx="14.5" cy="109.829" rx="3.625" ry="3.46026" fill="#F2B440" fill-opacity="0.4"/>
<ellipse cx="79.75" cy="109.829" rx="3.625" ry="3.46026" fill="#F2B440" fill-opacity="0.4"/>
<ellipse cx="25.375" cy="109.829" rx="3.625" ry="3.46026" fill="#F2B440" fill-opacity="0.4"/>
<ellipse cx="90.6251" cy="109.829" rx="3.625" ry="3.46026" fill="#F2B440" fill-opacity="0.4"/>
<ellipse cx="36.25" cy="109.829" rx="3.625" ry="3.46026" fill="#F2B440" fill-opacity="0.4"/>
<ellipse cx="101.5" cy="109.829" rx="3.625" ry="3.46026" fill="#F2B440" fill-opacity="0.4"/>
<ellipse cx="47.125" cy="109.829" rx="3.625" ry="3.46026" fill="#F2B440" fill-opacity="0.4"/>
<ellipse cx="112.375" cy="109.829" rx="3.625" ry="3.46026" fill="#F2B440" fill-opacity="0.4"/>
</svg>
