<svg width="276" height="260" viewBox="0 0 276 260" fill="none" xmlns="http://www.w3.org/2000/svg">
<path d="M238.312 240.828C238.312 256.886 211.763 259.253 195.704 259.253C179.645 259.253 166.627 246.234 166.627 230.176C166.627 214.117 179.645 201.099 195.704 201.099C211.763 201.099 238.312 224.769 238.312 240.828Z" fill="#F2B440" fill-opacity="0.4"/>
<path d="M166.627 170.771C166.627 186.83 140.078 170.771 124.019 170.771C107.961 170.771 94.9423 176.178 94.9423 160.119C94.9423 144.061 107.961 131.042 124.019 131.042C140.078 131.042 166.627 154.713 166.627 170.771Z" fill="#F2B440" fill-opacity="0.4"/>
<path d="M98.6849 211.75C98.6849 227.809 40.9558 223.554 24.897 223.554C8.83817 223.554 27 217.157 27 201.099C27 185.04 8.83817 165.976 24.897 165.976C40.9558 165.976 98.6849 195.692 98.6849 211.75Z" fill="#F2B440" fill-opacity="0.4"/>
<path d="M275.162 134.853C275.162 150.912 248.613 153.278 232.554 153.278C216.496 153.278 195.704 157.246 195.704 141.187C195.704 125.128 224.557 87.0634 240.615 87.0634C256.674 87.0634 275.162 118.795 275.162 134.853Z" fill="#F2B440" fill-opacity="0.4"/>
<path d="M72.1989 101.162C72.1989 117.221 39.0283 134.557 22.9696 134.557C6.91076 134.557 0.514038 106.569 0.514038 90.51C0.514038 74.4512 33.3968 58.5541 49.4555 58.5541C65.5143 58.5541 72.1989 85.1032 72.1989 101.162Z" fill="#F2B440" fill-opacity="0.4"/>
<path d="M214.705 46.7506C194.079 102.889 156.976 58.5541 140.917 58.5541C124.019 49.6295 140.053 63.1604 113.367 46.7506C69.8979 57.4026 124.858 0.975861 140.917 0.975861C156.976 0.975861 214.705 30.6918 214.705 46.7506Z" fill="#F2B440" fill-opacity="0.4"/>
</svg>
